<svg xmlns="http://www.w3.org/2000/svg" viewBox="0 0 100 100">
  <defs>
    <style>
      .i {
        fill: #6bc8ef;
      }

      .j {
        fill: #7fc8ae;
      }

      .k {
        fill: #7ec7ae;
      }

      .l {
        fill: #6cc8ef;
      }

      .m {
        fill: none;
        stroke: #6bc8ef;
        stroke-miterlimit: 10;
        stroke-width: .25px;
      }
    </style>
  </defs>
  <g id="h" data-name="ATRS_logo">
    <path class="l" d="M57.14,46.91c0,.29,0,.5,0,.7,0,1.73,0,3.46,0,5.19,0,1.32-1.06,2.41-2.3,2.41-1.21,0-2.27-1.07-2.27-2.37-.01-6.36-.01-12.72,0-19.08,0-1.27,1.05-2.25,2.43-2.26,2.42-.03,4.84-.04,7.27,0,2.02.04,3.91.55,5.48,1.92,1.17,1.02,1.87,2.32,2.16,3.83.45,2.36.19,4.6-1.29,6.57-.42.56-.99,1-1.51,1.49-.15.14-.33.25-.41.3.16.71.43,1.34.41,1.96-.03.95-.68,1.56-1.56,1.86-.96.33-1.75-.01-2.36-.74-.36-.42-.6-.93-.93-1.38-.12-.17-.33-.37-.51-.38-1.5-.03-2.99-.02-4.59-.02ZM57.17,42.94c1.68,0,3.32,0,4.97,0,.36,0,.73-.04,1.08-.14,1.65-.48,2.61-2.14,2.34-3.99-.27-1.84-1.47-2.9-3.33-2.93-1.54-.02-3.07,0-4.61,0-.15,0-.29.03-.44.05v7.02Z"/>
    <path class="i" d="M17.93,49.46c-1.75,0-3.5.01-5.24,0-.42,0-.67.13-.85.52-.57,1.24-1.18,2.46-1.75,3.69-.77,1.65-2.68,2.07-3.8.8-.67-.76-.78-1.66-.35-2.58,1.09-2.33,2.2-4.64,3.31-6.96,1.9-3.98,3.8-7.96,5.69-11.95.44-.93,1.12-1.47,2.14-1.47.99,0,1.68.53,2.11,1.43,2.08,4.43,4.15,8.86,6.27,13.26.75,1.55-.38,3.26-2.16,3.26-1.79,0-3.57,0-5.36,0h0ZM13.98,45.49h6.21c-1.05-2.19-2.06-4.29-3.13-6.53-1.07,2.26-2.06,4.36-3.08,6.53Z"/>
    <path class="i" d="M86.62,55.8c-1.04-.04-2.06-.16-3-.68-.87-.49-1.31-1.29-1.15-2.12.26-1.34,1.06-1.89,2.44-1.73.68.08,1.37.13,2.06.13.74,0,1.39-.29,1.93-.78,1.32-1.19,1.16-2.97-.45-3.83-1.33-.71-2.74-1.29-4.15-1.82-1.94-.73-3.91-1.37-5.49-2.8-1.1-.99-1.73-2.21-1.83-3.71-.12-1.7.3-3.23,1.35-4.58,1.16-1.49,2.73-2.3,4.55-2.7,2.93-.64,5.69-.25,8.21,1.41.63.42,1.21.95,1.71,1.53,1.11,1.28.43,3.19-1.22,3.54-.74.15-1.33-.22-1.82-.68-1.2-1.14-2.61-1.74-4.24-1.8-1.48-.06-2.84.25-3.72,1.6-.6.91-.45,2.02.48,2.58,1.21.73,2.51,1.31,3.78,1.92,1.69.82,3.44,1.51,5.07,2.43,1.56.88,2.66,2.22,3.06,4.06.63,2.9-.98,6.08-3.7,7.27-1.23.54-2.52.78-3.86.78Z"/>
    <path class="l" d="M40.07,43.4c0,3.09,0,6.19,0,9.28,0,1.03-.4,1.84-1.36,2.28-1.49.68-3.12-.35-3.14-1.99-.02-2.21,0-4.42,0-6.63,0-3.23,0-6.45.01-9.68,0-.48-.13-.63-.61-.62-1.38.03-2.77.03-4.15,0-1.87-.03-2.97-1.81-2.11-3.38.45-.82,1.21-1.17,2.11-1.18,2.27-.02,4.54-.03,6.8,0,1.56.02,2.45.95,2.45,2.51,0,3.13,0,6.26,0,9.39Z"/>
    <path class="j" d="M44.96,31.48c1.21.02,2.27,1.11,2.24,2.32-.02,1.2-1.14,2.28-2.32,2.24-1.22-.04-2.26-1.12-2.24-2.32.02-1.2,1.11-2.25,2.33-2.24Z"/>
    <path class="j" d="M23.93,52.95c0-1.28.96-2.28,2.22-2.32,1.24-.03,2.28,1.02,2.28,2.32,0,1.22-1.02,2.24-2.22,2.24-1.27,0-2.27-1-2.28-2.25Z"/>
    <path class="j" d="M68.61,50.62c1.21.02,2.24,1.11,2.21,2.34-.04,1.22-1.08,2.24-2.26,2.22-1.21-.02-2.28-1.11-2.26-2.31.02-1.21,1.11-2.27,2.32-2.25Z"/>
    <path class="k" d="M81.03,50.44c0,1.21-1.03,2.22-2.25,2.23-1.24,0-2.25-1.03-2.25-2.3,0-1.24.99-2.19,2.26-2.19,1.3,0,2.24.95,2.24,2.26Z"/>
  </g>
  <g>
    <g>
      <path class="i" d="M36.62,60.14c-.05.06-.11.13-.17.21-.06.08-.12.16-.17.24-.16.28-.39.63-.71,1.04-.31.41-.67.83-1.08,1.26s-.85.81-1.33,1.14l-.83-.66c.29-.17.58-.37.86-.61.28-.24.54-.49.79-.75.25-.26.46-.52.65-.78.19-.25.34-.48.45-.67h-7.13c-.23,0-.47,0-.7.02-.23.01-.48.03-.73.06v-1.14c.22.03.45.06.7.08.25.02.49.03.73.03h7.18c.08,0,.18,0,.29,0,.11,0,.22-.01.33-.03.11-.02.19-.03.25-.04l.61.59ZM31.63,61.79c0,.68-.02,1.31-.06,1.9-.04.59-.13,1.15-.25,1.66-.13.52-.31,1-.57,1.43s-.59.85-1.02,1.23c-.42.38-.96.73-1.59,1.04l-.93-.75c.18-.06.36-.14.56-.23.2-.1.39-.21.56-.33.49-.29.89-.62,1.18-.99.29-.37.51-.77.66-1.2.15-.43.25-.88.3-1.36.05-.48.08-.98.08-1.5,0-.16,0-.31,0-.45s-.02-.3-.04-.46h1.13Z"/>
      <path class="i" d="M41.7,67.5v-7.28c0-.18,0-.39-.03-.64-.02-.25-.04-.47-.07-.66h1.23c-.02.18-.04.4-.06.65-.02.25-.03.47-.03.65v2.62c0,.51,0,1.02,0,1.53,0,.5,0,.98,0,1.41v1.72c0,.13,0,.29,0,.46s.02.35.03.53c.02.18.03.34.04.48h-1.21c.03-.2.06-.44.07-.71.01-.27.02-.53.02-.76ZM42.53,62.19c.41.12.86.27,1.36.44.5.17,1,.35,1.52.54.52.19,1.01.39,1.47.58.46.2.87.38,1.21.56l-.43,1.06c-.36-.2-.76-.4-1.21-.59-.45-.2-.91-.39-1.38-.58s-.93-.36-1.36-.52-.83-.28-1.17-.38v-1.11Z"/>
      <path class="i" d="M60.99,62.58c-.03.05-.06.11-.09.18-.04.07-.06.13-.07.18-.17.62-.4,1.24-.69,1.86-.29.62-.67,1.19-1.14,1.7-.66.72-1.37,1.28-2.13,1.68s-1.55.71-2.35.94l-.78-.89c.88-.18,1.71-.47,2.47-.86.76-.39,1.41-.87,1.94-1.43.38-.4.7-.85.95-1.35.25-.5.43-.97.54-1.42h-6.65c-.15,0-.33,0-.55,0s-.44.02-.68.03v-1.05c.23.02.45.04.66.06s.4.02.56.02h6.6c.14,0,.27,0,.4-.02s.22-.04.29-.08l.71.45ZM52.89,59.28c.17.03.35.04.54.05.19,0,.39.01.59.01h4.92c.2,0,.4,0,.6-.01.2,0,.38-.03.54-.05v1.04c-.15-.02-.33-.03-.53-.03-.2,0-.41,0-.62,0h-4.91c-.19,0-.38,0-.58.01-.19,0-.37.02-.55.02v-1.04Z"/>
      <path class="i" d="M72.53,60.23s-.09.13-.16.24c-.06.11-.12.21-.16.31-.16.41-.37.86-.63,1.36-.26.5-.55.99-.86,1.47s-.65.92-1,1.31c-.46.52-.96,1.02-1.51,1.51s-1.13.94-1.74,1.36c-.61.42-1.24.78-1.9,1.08l-.8-.84c.68-.27,1.32-.6,1.95-1,.62-.4,1.2-.83,1.75-1.3.55-.47,1.03-.95,1.46-1.42.28-.33.57-.69.85-1.1.28-.4.53-.82.75-1.24s.38-.8.48-1.15h-4.88c-.14,0-.3,0-.48.01s-.34.02-.49.02c-.15,0-.24.02-.29.03v-1.14c.06,0,.16.02.32.03.15.01.32.02.49.03s.32.01.45.01h4.83c.21,0,.39,0,.56-.02s.29-.04.38-.08l.64.49ZM69.89,64.26c.34.28.69.6,1.06.94s.72.69,1.07,1.06.68.71.98,1.04.56.63.78.89l-.88.75c-.29-.4-.64-.83-1.05-1.3-.41-.46-.84-.93-1.3-1.39-.46-.46-.91-.89-1.37-1.28l.71-.71Z"/>
    </g>
    <g>
      <path class="i" d="M36.62,60.14c-.05.06-.11.13-.17.21-.06.08-.12.16-.17.24-.16.28-.39.63-.71,1.04-.31.41-.67.83-1.08,1.26s-.85.81-1.33,1.14l-.83-.66c.29-.17.58-.37.86-.61.28-.24.54-.49.79-.75.25-.26.46-.52.65-.78.19-.25.34-.48.45-.67h-7.13c-.23,0-.47,0-.7.02-.23.01-.48.03-.73.06v-1.14c.22.03.45.06.7.08.25.02.49.03.73.03h7.18c.08,0,.18,0,.29,0,.11,0,.22-.01.33-.03.11-.02.19-.03.25-.04l.61.59ZM31.63,61.79c0,.68-.02,1.31-.06,1.9-.04.59-.13,1.15-.25,1.66-.13.52-.31,1-.57,1.43s-.59.85-1.02,1.23c-.42.38-.96.73-1.59,1.04l-.93-.75c.18-.06.36-.14.56-.23.2-.1.39-.21.56-.33.49-.29.89-.62,1.18-.99.29-.37.51-.77.66-1.2.15-.43.25-.88.3-1.36.05-.48.08-.98.08-1.5,0-.16,0-.31,0-.45s-.02-.3-.04-.46h1.13Z"/>
      <path class="i" d="M41.7,67.5v-7.28c0-.18,0-.39-.03-.64-.02-.25-.04-.47-.07-.66h1.23c-.02.18-.04.4-.06.65-.02.25-.03.47-.03.65v2.62c0,.51,0,1.02,0,1.53,0,.5,0,.98,0,1.41v1.72c0,.13,0,.29,0,.46s.02.35.03.53c.02.18.03.34.04.48h-1.21c.03-.2.06-.44.07-.71.01-.27.02-.53.02-.76ZM42.53,62.19c.41.12.86.27,1.36.44.5.17,1,.35,1.52.54.52.19,1.01.39,1.47.58.46.2.87.38,1.21.56l-.43,1.06c-.36-.2-.76-.4-1.21-.59-.45-.2-.91-.39-1.38-.58s-.93-.36-1.36-.52-.83-.28-1.17-.38v-1.11Z"/>
      <path class="i" d="M60.99,62.58c-.03.05-.06.11-.09.18-.04.07-.06.13-.07.18-.17.62-.4,1.24-.69,1.86-.29.62-.67,1.19-1.14,1.7-.66.72-1.37,1.28-2.13,1.68s-1.55.71-2.35.94l-.78-.89c.88-.18,1.71-.47,2.47-.86.76-.39,1.41-.87,1.94-1.43.38-.4.7-.85.95-1.35.25-.5.43-.97.54-1.42h-6.65c-.15,0-.33,0-.55,0s-.44.02-.68.03v-1.05c.23.02.45.04.66.06s.4.02.56.02h6.6c.14,0,.27,0,.4-.02s.22-.04.29-.08l.71.45ZM52.89,59.28c.17.03.35.04.54.05.19,0,.39.01.59.01h4.92c.2,0,.4,0,.6-.01.2,0,.38-.03.54-.05v1.04c-.15-.02-.33-.03-.53-.03-.2,0-.41,0-.62,0h-4.91c-.19,0-.38,0-.58.01-.19,0-.37.02-.55.02v-1.04Z"/>
      <path class="i" d="M72.53,60.23s-.09.13-.16.24c-.06.11-.12.21-.16.31-.16.41-.37.86-.63,1.36-.26.5-.55.99-.86,1.47s-.65.92-1,1.31c-.46.52-.96,1.02-1.51,1.51s-1.13.94-1.74,1.36c-.61.42-1.24.78-1.9,1.08l-.8-.84c.68-.27,1.32-.6,1.95-1,.62-.4,1.2-.83,1.75-1.3.55-.47,1.03-.95,1.46-1.42.28-.33.57-.69.85-1.1.28-.4.53-.82.75-1.24s.38-.8.48-1.15h-4.88c-.14,0-.3,0-.48.01s-.34.02-.49.02c-.15,0-.24.02-.29.03v-1.14c.06,0,.16.02.32.03.15.01.32.02.49.03s.32.01.45.01h4.83c.21,0,.39,0,.56-.02s.29-.04.38-.08l.64.49ZM69.89,64.26c.34.28.69.6,1.06.94s.72.69,1.07,1.06.68.71.98,1.04.56.63.78.89l-.88.75c-.29-.4-.64-.83-1.05-1.3-.41-.46-.84-.93-1.3-1.39-.46-.46-.91-.89-1.37-1.28l.71-.71Z"/>
    </g>
    <g>
      <path class="m" d="M36.62,60.14c-.05.06-.11.13-.17.21-.06.08-.12.16-.17.24-.16.28-.39.63-.71,1.04-.31.41-.67.83-1.08,1.26s-.85.81-1.33,1.14l-.83-.66c.29-.17.58-.37.86-.61.28-.24.54-.49.79-.75.25-.26.46-.52.65-.78.19-.25.34-.48.45-.67h-7.13c-.23,0-.47,0-.7.02-.23.01-.48.03-.73.06v-1.14c.22.03.45.06.7.08.25.02.49.03.73.03h7.18c.08,0,.18,0,.29,0,.11,0,.22-.01.33-.03.11-.02.19-.03.25-.04l.61.59ZM31.63,61.79c0,.68-.02,1.31-.06,1.9-.04.59-.13,1.15-.25,1.66-.13.52-.31,1-.57,1.43s-.59.85-1.02,1.23c-.42.38-.96.73-1.59,1.04l-.93-.75c.18-.06.36-.14.56-.23.2-.1.39-.21.56-.33.49-.29.89-.62,1.18-.99.29-.37.51-.77.66-1.2.15-.43.25-.88.3-1.36.05-.48.08-.98.08-1.5,0-.16,0-.31,0-.45s-.02-.3-.04-.46h1.13Z"/>
      <path class="m" d="M41.7,67.5v-7.28c0-.18,0-.39-.03-.64-.02-.25-.04-.47-.07-.66h1.23c-.02.18-.04.4-.06.65-.02.25-.03.47-.03.65v2.62c0,.51,0,1.02,0,1.53,0,.5,0,.98,0,1.41v1.72c0,.13,0,.29,0,.46s.02.35.03.53c.02.18.03.34.04.48h-1.21c.03-.2.06-.44.07-.71.01-.27.02-.53.02-.76ZM42.53,62.19c.41.12.86.27,1.36.44.5.17,1,.35,1.52.54.52.19,1.01.39,1.47.58.46.2.87.38,1.21.56l-.43,1.06c-.36-.2-.76-.4-1.21-.59-.45-.2-.91-.39-1.38-.58s-.93-.36-1.36-.52-.83-.28-1.17-.38v-1.11Z"/>
      <path class="m" d="M60.99,62.58c-.03.05-.06.11-.09.18-.04.07-.06.13-.07.18-.17.62-.4,1.24-.69,1.86-.29.62-.67,1.19-1.14,1.7-.66.72-1.37,1.28-2.13,1.68s-1.55.71-2.35.94l-.78-.89c.88-.18,1.71-.47,2.47-.86.76-.39,1.41-.87,1.94-1.43.38-.4.7-.85.95-1.35.25-.5.43-.97.54-1.42h-6.65c-.15,0-.33,0-.55,0s-.44.02-.68.03v-1.05c.23.02.45.04.66.06s.4.02.56.02h6.6c.14,0,.27,0,.4-.02s.22-.04.29-.08l.71.45ZM52.89,59.28c.17.03.35.04.54.05.19,0,.39.01.59.01h4.92c.2,0,.4,0,.6-.01.2,0,.38-.03.54-.05v1.04c-.15-.02-.33-.03-.53-.03-.2,0-.41,0-.62,0h-4.91c-.19,0-.38,0-.58.01-.19,0-.37.02-.55.02v-1.04Z"/>
      <path class="m" d="M72.53,60.23s-.09.13-.16.24c-.06.11-.12.21-.16.31-.16.41-.37.86-.63,1.36-.26.5-.55.99-.86,1.47s-.65.92-1,1.31c-.46.52-.96,1.02-1.51,1.51s-1.13.94-1.74,1.36c-.61.42-1.24.78-1.9,1.08l-.8-.84c.68-.27,1.32-.6,1.95-1,.62-.4,1.2-.83,1.75-1.3.55-.47,1.03-.95,1.46-1.42.28-.33.57-.69.85-1.1.28-.4.53-.82.75-1.24s.38-.8.48-1.15h-4.88c-.14,0-.3,0-.48.01s-.34.02-.49.02c-.15,0-.24.02-.29.03v-1.14c.06,0,.16.02.32.03.15.01.32.02.49.03s.32.01.45.01h4.83c.21,0,.39,0,.56-.02s.29-.04.38-.08l.64.49ZM69.89,64.26c.34.28.69.6,1.06.94s.72.69,1.07,1.06.68.71.98,1.04.56.63.78.89l-.88.75c-.29-.4-.64-.83-1.05-1.3-.41-.46-.84-.93-1.3-1.39-.46-.46-.91-.89-1.37-1.28l.71-.71Z"/>
    </g>
  </g>
</svg>
