<?xml version="1.0" encoding="UTF-8"?>
<svg xmlns="http://www.w3.org/2000/svg" viewBox="0 0 173.3 48.72">
  <defs>
    <style>
      .a {
        fill: #6bc8ef;
      }

      .b {
        fill: #7fc8ae;
      }

    </style>
  </defs>
  <path class="a" d="M23.95,36.31c-3.42,0-6.84.02-10.25-.02-.83-.01-1.31.25-1.66,1.01-1.11,2.42-2.3,4.8-3.42,7.21-1.5,3.22-5.24,4.04-7.43,1.56-1.31-1.49-1.53-3.24-.69-5.04,2.14-4.55,4.31-9.08,6.47-13.61,3.71-7.79,7.44-15.57,11.12-23.37.86-1.81,2.18-2.88,4.18-2.87,1.94,0,3.29,1.05,4.12,2.81,4.07,8.65,8.11,17.32,12.26,25.94,1.46,3.03-.74,6.38-4.22,6.38-3.49,0-6.99,0-10.48,0h0ZM16.22,28.56h12.15c-2.05-4.28-4.02-8.39-6.12-12.77-2.09,4.42-4.03,8.53-6.03,12.77Z"/>
  <path class="a" d="M67.24,24.46c0,6.05,0,12.09,0,18.14,0,2.01-.78,3.6-2.65,4.46-2.9,1.34-6.1-.68-6.13-3.89-.05-4.32-.02-8.64-.02-12.96,0-6.31-.02-12.62.02-18.93,0-.94-.26-1.22-1.2-1.2-2.7.06-5.41.06-8.12,0-3.65-.07-5.81-3.53-4.12-6.61.87-1.59,2.38-2.29,4.12-2.31,4.43-.05,8.87-.06,13.3,0,3.06.04,4.78,1.85,4.79,4.91.02,6.12,0,12.24,0,18.37Z"/>
  <path class="a" d="M100.6,31.32c0,.56,0,.97,0,1.37,0,3.38.01,6.76,0,10.14-.01,2.57-2.08,4.71-4.5,4.7-2.37,0-4.44-2.1-4.45-4.63-.02-12.43-.02-24.86,0-37.3,0-2.48,2.06-4.39,4.75-4.42,4.73-.05,9.47-.08,14.21.02,3.95.08,7.64,1.07,10.71,3.75,2.29,2,3.66,4.53,4.23,7.49.88,4.61.36,8.99-2.53,12.84-.82,1.09-1.94,1.96-2.94,2.91-.29.28-.65.48-.79.59.31,1.39.83,2.62.79,3.83-.06,1.87-1.33,3.04-3.06,3.64-1.87.65-3.41-.02-4.61-1.45-.69-.83-1.18-1.83-1.82-2.7-.24-.33-.65-.73-1-.74-2.93-.06-5.85-.03-8.98-.03ZM100.67,23.56c3.28,0,6.5.02,9.71-.01.7,0,1.43-.09,2.1-.28,3.22-.93,5.1-4.18,4.57-7.81-.52-3.59-2.86-5.68-6.51-5.72-3-.04-6.01-.01-9.02,0-.29,0-.57.07-.86.1v13.73Z"/>
  <path class="a" d="M158.26,48.72c-2.04-.07-4.04-.3-5.86-1.34-1.7-.96-2.56-2.53-2.25-4.14.51-2.61,2.08-3.69,4.76-3.38,1.34.16,2.69.25,4.03.26,1.44,0,2.72-.58,3.78-1.53,2.59-2.33,2.27-5.81-.89-7.49-2.6-1.39-5.35-2.52-8.12-3.56-3.79-1.43-7.65-2.68-10.74-5.47-2.15-1.94-3.37-4.33-3.58-7.26-.24-3.33.59-6.32,2.64-8.95,2.27-2.92,5.34-4.51,8.89-5.29,5.73-1.26,11.12-.5,16.04,2.75,1.24.82,2.37,1.87,3.34,2.99,2.17,2.49.84,6.24-2.38,6.91-1.44.3-2.6-.43-3.55-1.33-2.34-2.22-5.11-3.4-8.29-3.52-2.89-.12-5.56.5-7.28,3.13-1.17,1.79-.89,3.95.94,5.04,2.36,1.42,4.9,2.55,7.39,3.76,3.3,1.6,6.73,2.96,9.91,4.76,3.05,1.73,5.2,4.35,5.98,7.93,1.24,5.66-1.91,11.89-7.23,14.21-2.41,1.05-4.92,1.53-7.54,1.52Z"/>
  <path class="b" d="M35.68,43.15c0-2.5,1.88-4.46,4.34-4.53,2.43-.06,4.46,2,4.45,4.53,0,2.39-1.99,4.39-4.35,4.39-2.47,0-4.45-1.95-4.45-4.39Z"/>
  <path class="b" d="M76.8,1.17c2.37.04,4.43,2.17,4.38,4.53-.05,2.35-2.23,4.46-4.54,4.39-2.39-.08-4.43-2.19-4.39-4.54.04-2.35,2.18-4.41,4.55-4.37Z"/>
  <path class="b" d="M123.03,38.58c2.37.03,4.39,2.17,4.31,4.57-.08,2.39-2.1,4.38-4.43,4.34-2.37-.04-4.46-2.18-4.41-4.51.05-2.37,2.17-4.43,4.53-4.4Z"/>
  <path class="b" d="M147.32,38.23c0,2.36-2.01,4.35-4.41,4.35-2.42,0-4.39-2.01-4.39-4.49,0-2.42,1.93-4.29,4.41-4.28,2.55,0,4.38,1.85,4.39,4.42Z"/>
</svg>