<svg version="1.1" xmlns="http://www.w3.org/2000/svg" xmlns:xlink="http://www.w3.org/1999/xlink" width="16" height="16" viewBox="0,0,256,256"><g fill="#ffffff" fill-rule="nonzero" stroke="none" stroke-width="1" stroke-linecap="butt" stroke-linejoin="miter" stroke-miterlimit="10" stroke-dasharray="" stroke-dashoffset="0" font-family="none" font-weight="none" font-size="none" text-anchor="none" style="mix-blend-mode: normal"><g transform="translate(-16,-16) scale(16,16)"><path d="M11,5c0,1.65685 -1.34315,3 -3,3c-1.65685,0 -3,-1.34315 -3,-3c0,-1.65685 1.34315,-3 3,-3c1.65685,0 3,1.34315 3,3zM2,13c0,1 1,1 1,1h5.256c-0.17,-0.48181 -0.25657,-0.98908 -0.256,-1.5c-0.00134,-1.30131 0.56197,-2.53918 1.544,-3.393c-0.467,-0.069 -0.98,-0.107 -1.544,-0.107c-5,0 -6,3 -6,4z"></path><path d="M12.5,16c1.933,0 3.5,-1.567 3.5,-3.5c0,-1.933 -1.567,-3.5 -3.5,-3.5c-1.933,0 -3.5,1.567 -3.5,3.5c0,1.933 1.567,3.5 3.5,3.5zM11.854,11.146l0.646,0.647l0.646,-0.647c0.19551,-0.19551 0.51249,-0.19551 0.708,0c0.19551,0.19551 0.19551,0.51249 0,0.708l-0.647,0.646l0.647,0.646c0.19551,0.19551 0.19551,0.51249 0,0.708c-0.19551,0.19551 -0.51249,0.19551 -0.708,0l-0.646,-0.647l-0.646,0.647c-0.19551,0.19551 -0.51249,0.19551 -0.708,0c-0.19551,-0.19551 -0.19551,-0.51249 0,-0.708l0.647,-0.646l-0.647,-0.646c-0.19551,-0.19551 -0.19551,-0.51249 0,-0.708c0.19551,-0.19551 0.51249,-0.19551 0.708,0z"></path></g></g></svg>