<svg version="1.1" xmlns="http://www.w3.org/2000/svg" xmlns:xlink="http://www.w3.org/1999/xlink" width="16" height="16" viewBox="0,0,256,256"><g fill="#ffffff" fill-rule="nonzero" stroke="none" stroke-width="1" stroke-linecap="butt" stroke-linejoin="miter" stroke-miterlimit="10" stroke-dasharray="" stroke-dashoffset="0" font-family="none" font-weight="none" font-size="none" text-anchor="none" style="mix-blend-mode: normal"><g transform="translate(-16,-16) scale(16,16)"><path d="M12.5,16c1.933,0 3.5,-1.567 3.5,-3.5c0,-1.933 -1.567,-3.5 -3.5,-3.5c-1.933,0 -3.5,1.567 -3.5,3.5c0,1.933 1.567,3.5 3.5,3.5zM14.179,11.507l-1.335,2.226c-0.11888,0.19817 -0.32247,0.33047 -0.55185,0.35861c-0.22937,0.02813 -0.45891,-0.05104 -0.62215,-0.21461l-0.774,-0.773c-0.19551,-0.19551 -0.19551,-0.51249 0,-0.708c0.19551,-0.19551 0.51249,-0.19551 0.708,0l0.547,0.548l1.17,-1.951c0.14194,-0.23693 0.44907,-0.31394 0.686,-0.172c0.23693,0.14194 0.31394,0.44907 0.172,0.686zM11,5c0,1.65685 -1.34315,3 -3,3c-1.65685,0 -3,-1.34315 -3,-3c0,-1.65685 1.34315,-3 3,-3c1.65685,0 3,1.34315 3,3z"></path><path d="M2,13c0,1 1,1 1,1h5.256c-0.17,-0.48181 -0.25657,-0.98908 -0.256,-1.5c-0.00134,-1.30131 0.56197,-2.53918 1.544,-3.393c-0.467,-0.069 -0.98,-0.107 -1.544,-0.107c-5,0 -6,3 -6,4z"></path></g></g></svg>